<?xml version="1.0" standalone="no"?><!DOCTYPE svg PUBLIC "-//W3C//DTD SVG 1.1//EN" "http://www.w3.org/Graphics/SVG/1.1/DTD/svg11.dtd"><svg t="1626333366393" class="icon" viewBox="0 0 1024 1024" version="1.1" xmlns="http://www.w3.org/2000/svg" p-id="1129" xmlns:xlink="http://www.w3.org/1999/xlink" width="200" height="200"><defs><style type="text/css"></style></defs><path d="M330.75 545.4l-1.09-7.6H270l2.17 10.85c16.27 100.92 98.71 183.4 199.59 199.68l10.85 2.17v-56.43l-7.59-1.09c-75.93-15.19-132.34-72.7-144.27-147.58zM331.84 478.11c14.1-73.79 70.51-131.31 143.18-146.5l7.59-1.09v-56.43l-10.85 2.17c-100.88 16.28-183.32 98.75-199.59 199.68L270 486.79h59.66l2.18-8.68zM694.14 477.03l1.09 7.59h59.66l-2.17-10.85c-16.27-100.92-98.72-183.4-199.6-199.68l-10.85-2.17v59.69l7.59 1.09c74.86 16.27 131.26 72.71 144.28 144.33zM516.24 388.04c-34.71 0-66.17 13.02-91.12 37.98-23.86 23.88-37.96 57.52-37.96 91.16 0 69.45 57.49 125.88 129.08 125.88 68.34-2.17 124.75-57.51 124.75-126.97v-8.68c-4.34-67.28-57.49-119.37-124.75-119.37z m-2.17 195.34c-39.05 0-69.43-30.38-69.43-69.45 0-39.07 30.37-69.45 69.43-69.45 39.05 0 69.42 30.39 69.42 69.45 0.01 39.06-30.37 69.45-69.42 69.45zM697.39 545.4c-15.19 71.62-71.59 129.14-144.27 147.59l-6.51 2.17v55.35l10.85-2.17c100.88-16.28 183.32-98.75 199.59-199.68l2.17-10.85h-59.66l-2.17 7.59z" fill="#4A79FD" p-id="1130"></path><path d="M514.02 850.16c-89.74 0-174.11-34.95-237.57-98.41s-98.41-147.83-98.41-237.57c0-89.74 34.95-174.11 98.41-237.57s147.83-98.41 237.57-98.41 174.11 34.95 237.57 98.41S850 424.44 850 514.18c0 89.74-34.95 174.11-98.41 237.57s-147.83 98.41-237.57 98.41z m0-625.46c-77.33 0-150.02 30.11-204.7 84.79-54.68 54.68-84.79 127.37-84.79 204.7 0 77.33 30.11 150.02 84.79 204.7 54.68 54.68 127.37 84.79 204.7 84.79s150.02-30.11 204.7-84.79c54.68-54.68 84.79-127.37 84.79-204.7 0-77.32-30.11-150.02-84.79-204.7-54.68-54.68-127.37-84.79-204.7-84.79z" fill="#4A79FD" p-id="1131"></path><path d="M540.58 151.46c-0.41-15.16-12.82-27.33-28.08-27.33s-27.67 12.17-28.08 27.33h-0.02v39.06h56.2v-39.06h-0.02zM540.58 872.15c-0.41 15.16-12.82 27.33-28.08 27.33s-27.67-12.17-28.08-27.33h-0.02v-39.06h56.2v39.06h-0.02zM872.84 539.89c15.16-0.41 27.33-12.82 27.33-28.08 0-15.26-12.17-27.67-27.33-28.08v-0.02h-39.06v56.2h39.06v-0.02zM152.16 539.89c-15.16-0.41-27.33-12.82-27.33-28.08 0-15.26 12.17-27.67 27.33-28.08v-0.02h39.06v56.2h-39.06v-0.02z" fill="#4A79FD" p-id="1132"></path></svg>