<?xml version="1.0" encoding="UTF-8"?>
<!DOCTYPE svg PUBLIC "-//W3C//DTD SVG 1.1//EN" "http://www.w3.org/Graphics/SVG/1.1/DTD/svg11.dtd">
<!-- Creator: CorelDRAW 2018 (评估版) -->
<svg xmlns="http://www.w3.org/2000/svg" xml:space="preserve" version="1.1" style="shape-rendering:geometricPrecision; text-rendering:geometricPrecision; image-rendering:optimizeQuality; fill-rule:evenodd; clip-rule:evenodd"
viewBox="0 0 152.54 124.04"
 xmlns:xlink="http://www.w3.org/1999/xlink">
 <defs>
  <style type="text/css">
   <![CDATA[
    .fil0 {fill:#fff}
   ]]>
  </style>
 </defs>
 <g id="图层_x0020_1">
  <metadata id="CorelCorpID_0Corel-Layer"/>
  <path class="fil0" d="M77.99 70.07c10.39,-6.86 17.35,-18.59 17.35,-31.94 0,-21.07 -17.07,-38.14 -38.14,-38.14 -21.07,0 -38.14,17.07 -38.14,38.14 0,13.35 6.96,25.07 17.35,31.94 -21.26,6.96 -36.42,24.88 -36.42,49.1 0,2.67 2.1,4.77 4.77,4.77 2.67,0 4.76,-2.1 4.76,-4.77 0,-26.31 21.36,-42.9 47.67,-42.9 26.31,-0 47.67,16.59 47.67,42.9 0,2.67 2.1,4.77 4.77,4.77 2.67,0 4.77,-2.1 4.77,-4.77 0,-24.22 -15.16,-42.14 -36.42,-49.1zm-20.79 -3.34c-15.73,0 -28.6,-12.87 -28.6,-28.6 0,-15.73 12.87,-28.6 28.6,-28.6 15.73,0 28.6,12.87 28.6,28.6 0,15.73 -12.87,28.6 -28.6,28.6zm62.64 3.91c10.96,-6.77 18.4,-18.68 18.4,-32.51 0,-21.07 -17.06,-38.14 -38.14,-38.14 -2.67,0 -4.77,2.1 -4.77,4.77 0,2.67 2.1,4.77 4.77,4.77 15.73,0 28.6,12.87 28.6,28.6 0,10.58 -5.72,19.74 -14.3,24.69 -8.39,5.15 -10.68,12.4 0,16.3 16.59,5.91 28.6,21.45 28.6,40.14 0,2.67 2.1,4.77 4.77,4.77 2.67,0 4.77,-2.1 4.77,-4.77 0,-22.02 -13.54,-40.8 -32.7,-48.62z"/>
 </g>
</svg>
