<?xml version="1.0" encoding="UTF-8"?>
<!DOCTYPE svg PUBLIC "-//W3C//DTD SVG 1.1//EN" "http://www.w3.org/Graphics/SVG/1.1/DTD/svg11.dtd">
<!-- Creator: CorelDRAW 2018 (评估版) -->
<svg xmlns="http://www.w3.org/2000/svg" xml:space="preserve" version="1.1" style="shape-rendering:geometricPrecision; text-rendering:geometricPrecision; image-rendering:optimizeQuality; fill-rule:evenodd; clip-rule:evenodd"
viewBox="0 0 152.54 145.62"
 xmlns:xlink="http://www.w3.org/1999/xlink">
 <defs>
  <style type="text/css">
   <![CDATA[
    .fil0 {fill:#fff}
   ]]>
  </style>
 </defs>
 <g id="图层_x0020_1">
  <metadata id="CorelCorpID_0Corel-Layer"/>
  <path class="fil0" d="M76.27 0c-42.29,0 -76.27,32.77 -76.27,72.81 0,40.05 33.98,72.81 76.27,72.81 42.3,0 76.27,-32.77 76.27,-72.81 0,-40.05 -33.98,-72.81 -76.27,-72.81zm0 138.34c-23.92,0 -45.07,-11.65 -57.55,-29.13l51.66 0c3.47,7.65 16.29,18.2 24.96,18.2 10.4,0 19.07,-7.28 19.07,-21.84 0,-14.56 -8.66,-21.84 -19.07,-21.84 -9.01,0 -21.49,10.56 -24.96,18.2l-56.16 0c-4.51,-8.74 -7.28,-18.57 -7.28,-29.12 0,-10.56 2.77,-20.39 7.28,-29.12l56.16 0c3.47,7.64 16.29,18.2 24.96,18.2 10.4,0 19.07,-7.28 19.07,-21.84 0,-14.56 -8.66,-21.85 -19.07,-21.85 -9.01,0 -21.49,10.56 -24.96,18.2l-51.66 0c12.48,-17.48 33.63,-29.13 57.55,-29.13 37.1,0 67.26,27.31 68.99,61.89l-70.03 0c-3.47,-7.65 -16.3,-18.2 -24.96,-18.2 -10.4,0 -19.07,7.28 -19.07,21.84 0,14.56 8.67,21.84 19.07,21.84 9.01,0 21.49,-10.56 24.96,-18.21l70.03 0c-1.73,34.59 -31.89,61.89 -68.99,61.89z"/>
 </g>
</svg>
