<?xml version="1.0" encoding="UTF-8"?>
<!DOCTYPE svg PUBLIC "-//W3C//DTD SVG 1.1//EN" "http://www.w3.org/Graphics/SVG/1.1/DTD/svg11.dtd">
<!-- Creator: CorelDRAW 2018 (评估版) -->
<svg xmlns="http://www.w3.org/2000/svg" xml:space="preserve" version="1.1" style="shape-rendering:geometricPrecision; text-rendering:geometricPrecision; image-rendering:optimizeQuality; fill-rule:evenodd; clip-rule:evenodd"
viewBox="0 0 152.54 152.51"
 xmlns:xlink="http://www.w3.org/1999/xlink">
 <defs>
  <style type="text/css">
   <![CDATA[
    .fil0 {fill:#fff}
   ]]>
  </style>
 </defs>
 <g id="图层_x0020_1">
  <metadata id="CorelCorpID_0Corel-Layer"/>
  <path class="fil0" d="M97.33 62.73l49.25 0c3.3,0 5.97,-2.67 5.97,-5.96 0,-21.94 -33.47,-56.42 -55.11,-56.74 -1.6,0 -3.15,0.6 -4.27,1.72 -1.15,1.12 -1.77,2.65 -1.77,4.24l0 50.8c-0.03,3.27 2.65,5.94 5.94,5.94zm5.94 -49.55c13.6,4.99 31.7,23.74 36.24,37.62l-36.24 0 0 -37.62zm43.28 57.11l-63.8 0 0 -64.33c0,-3.19 -2.75,-5.84 -5.94,-5.96l-0.52 0c-42.09,0 -76.28,34.2 -76.28,76.26 0,42.06 34.2,76.26 76.26,76.26 42.06,0 76.26,-34.2 76.26,-76.26 0,-3.29 -2.67,-5.97 -5.97,-5.97zm-70.29 70.32c-35.47,0 -64.35,-28.85 -64.35,-64.35 0,-33.62 25.94,-61.31 58.91,-64.1l0 64.1c0,3.29 2.67,5.97 5.97,5.97l63.55 0c-3.02,32.7 -30.6,58.38 -64.08,58.38z"/>
 </g>
</svg>
