<?xml version="1.0" encoding="UTF-8"?>
<!DOCTYPE svg PUBLIC "-//W3C//DTD SVG 1.1//EN" "http://www.w3.org/Graphics/SVG/1.1/DTD/svg11.dtd">
<!-- Creator: CorelDRAW 2018 (评估版) -->
<svg xmlns="http://www.w3.org/2000/svg" xml:space="preserve" version="1.1" style="shape-rendering:geometricPrecision; text-rendering:geometricPrecision; image-rendering:optimizeQuality; fill-rule:evenodd; clip-rule:evenodd"
viewBox="0 0 152.54 152.51"
 xmlns:xlink="http://www.w3.org/1999/xlink">
 <defs>
  <style type="text/css">
   <![CDATA[
    .fil0 {fill:#fff}
   ]]>
  </style>
 </defs>
 <g id="图层_x0020_1">
  <metadata id="CorelCorpID_0Corel-Layer"/>
  <path class="fil0" d="M35.94 63.6l-13.77 -13.75c-4.33,-4.35 -4.35,-11.36 -0.05,-15.72l11.71 -11.84c4.3,-4.36 11.31,-4.38 15.67,-0.05l13.77 13.74c3.07,3.06 4.6,7.5 3.35,11.37l12.36 12.16c8.61,-8.69 8.59,-22.8 -0.09,-31.44l-21.65 -21.61c-8.65,-8.65 -22.67,-8.59 -31.3,0.1l-19.51 19.75c-4.31,4.35 -6.46,10.05 -6.44,15.74 0.02,5.69 2.2,11.38 6.54,15.71l21.62 21.58c8.67,8.67 22.68,8.62 31.3,-0.09l-12.11 -12.17c-3.71,1.02 -8.49,-0.57 -11.41,-3.47zm109.95 30.08l-20.87 -20.84c-8.82,-8.81 -23.12,-8.77 -31.89,0.1l12.41 12.57c3.93,-1.33 8.44,0.27 11.56,3.38l12.88 12.85c4.41,4.39 4.45,11.59 0.06,16.03l-11.96 12.04c-4.38,4.45 -11.51,4.46 -15.93,0.06l-12.86 -12.85c-2.99,-2.98 -4.62,-7.87 -3.6,-11.66l-12.44 -12.32c-8.76,8.87 -8.72,23.2 0.1,32.04l20.87 20.84c8.84,8.82 23.13,8.77 31.89,-0.08l19.87 -20.11c8.78,-8.88 8.74,-23.22 -0.09,-32.05zm-93.02 -41.24c-2.95,3.02 -2.93,7.91 0.04,10.94l35.66 36.29c2.98,3 7.77,2.98 10.69,-0.04 2.94,-3.04 2.91,-7.93 -0.05,-10.93l-35.66 -36.29c-2.96,-2.99 -7.73,-2.97 -10.67,0.04z"/>
 </g>
</svg>
