<?xml version="1.0" encoding="UTF-8"?>
<!DOCTYPE svg PUBLIC "-//W3C//DTD SVG 1.1//EN" "http://www.w3.org/Graphics/SVG/1.1/DTD/svg11.dtd">
<!-- Creator: CorelDRAW 2018 (评估版) -->
<svg xmlns="http://www.w3.org/2000/svg" xml:space="preserve" version="1.1" style="shape-rendering:geometricPrecision; text-rendering:geometricPrecision; image-rendering:optimizeQuality; fill-rule:evenodd; clip-rule:evenodd"
viewBox="0 0 152.54 152.54"
 xmlns:xlink="http://www.w3.org/1999/xlink">
 <defs>
  <style type="text/css">
   <![CDATA[
    .fil0 {fill:#fff}
   ]]>
  </style>
 </defs>
 <g id="图层_x0020_1">
  <metadata id="CorelCorpID_0Corel-Layer"/>
  <path class="fil0" d="M37.1 149.79c-8.25,0 -17.87,-2.75 -24.74,-9.62 -13.74,-13.74 -13.74,-35.73 0,-48.1l28.86 -28.86 9.62 9.62 -28.86 28.86c-8.25,8.25 -8.25,20.62 0,28.86 8.24,8.25 20.61,8.25 28.86,0l28.86 -28.86 9.62 9.62 -28.86 28.86c-5.5,6.87 -15.12,9.62 -23.36,9.62zm72.83 -57.72l-9.62 -9.62 28.86 -30.23c4.12,-4.12 5.5,-9.62 5.5,-15.12 0,-5.5 -2.75,-11 -5.5,-15.12 -4.12,-4.12 -9.62,-5.5 -15.12,-5.5 -5.5,0 -10.99,2.75 -15.12,5.5l-27.48 30.23 -10.99 -9.62 28.86 -28.86c6.87,-6.87 15.12,-9.62 24.73,-9.62 9.62,0 17.87,4.12 24.74,9.62 6.87,6.87 9.62,15.12 9.62,24.74 0,9.62 -4.12,17.87 -9.62,24.73l-28.86 28.86zm-82.45 -31.61l-27.48 -2.75 1.37 -13.74 27.48 2.75 -1.37 13.74zm2.75 -19.24l-19.24 -19.24 9.62 -9.62 19.24 19.24 -9.62 9.62zm15.12 -12.37l-2.75 -27.48 13.74 -1.37 2.75 27.48 -13.74 1.37zm50.84 123.68l-2.75 -27.48 13.74 -1.37 2.75 27.48 -13.74 1.37zm35.73 -12.37l-19.24 -19.24 9.62 -9.62 19.24 19.24 -9.62 9.62zm19.24 -31.61l-27.48 -2.75 1.37 -13.74 27.48 2.75 -1.37 13.74z"/>
 </g>
</svg>
