<?xml version="1.0" encoding="UTF-8"?>
<!DOCTYPE svg PUBLIC "-//W3C//DTD SVG 1.1//EN" "http://www.w3.org/Graphics/SVG/1.1/DTD/svg11.dtd">
<!-- Creator: CorelDRAW X7 -->
<svg xmlns="http://www.w3.org/2000/svg" xml:space="preserve" version="1.1" style="shape-rendering:geometricPrecision; text-rendering:geometricPrecision; image-rendering:optimizeQuality; fill-rule:evenodd; clip-rule:evenodd"
viewBox="0 0 82 95"
 xmlns:xlink="http://www.w3.org/1999/xlink">
 <defs>
  <style type="text/css">
   <![CDATA[
    .fil0 {fill:#B0B0B0}
   ]]>
  </style>
 </defs>
 <g id="图层_x0020_1">
  <metadata id="CorelCorpID_0Corel-Layer"/>
  <g id="_409343000">
   <path class="fil0" d="M66 34l-48 0 0 -9c0,-11 10,-21 22,-21 12,0 22,9 22,21l0 5c0,1 1,2 2,2 1,0 2,-1 2,-2l0 -5c0,-14 -11,-25 -26,-25l0 0c-15,0 -26,11 -26,25l0 9c-8,1 -14,8 -14,16l0 30c0,8 7,15 16,15l50 0c9,0 16,-7 16,-15l0 -30c0,-9 -7,-16 -16,-16zm12 46c0,6 -6,12 -12,12l-50 -1c-6,0 -12,-5 -12,-11l0 -30c0,-6 6,-12 12,-12l50 0c6,0 12,6 12,12l0 30z"/>
   <g>
    <circle class="fil0" cx="41" cy="59" r="4"/>
    <rect class="fil0" x="39" y="61" width="3.94558" height="13.9739" rx="2" ry="1"/>
   </g>
  </g>
 </g>
</svg>
