<?xml version="1.0" encoding="UTF-8"?>
<!DOCTYPE svg PUBLIC "-//W3C//DTD SVG 1.1//EN" "http://www.w3.org/Graphics/SVG/1.1/DTD/svg11.dtd">
<!-- Creator: CorelDRAW X7 -->
<svg xmlns="http://www.w3.org/2000/svg" xml:space="preserve" version="1.1" style="shape-rendering:geometricPrecision; text-rendering:geometricPrecision; image-rendering:optimizeQuality; fill-rule:evenodd; clip-rule:evenodd"
viewBox="0 0 101 106"
 xmlns:xlink="http://www.w3.org/1999/xlink">
 <defs>
  <style type="text/css">
   <![CDATA[
    .fil0 {fill:#B0B0B0}
   ]]>
  </style>
 </defs>
 <g id="图层_x0020_1">
  <metadata id="CorelCorpID_0Corel-Layer"/>
  <g id="_408058248">
   <path class="fil0" d="M40 68c-19,0 -34,-15 -34,-34 0,-19 15,-34 34,-34 18,0 34,15 34,34 0,19 -16,34 -34,34zm0 -62c-16,0 -28,13 -28,28 0,15 12,27 28,27 15,0 27,-12 27,-27 0,-15 -12,-28 -27,-28z"/>
   <path class="fil0" d="M24 34l-4 -1c0,-3 2,-7 4,-10 0,0 0,0 0,0 3,-4 7,-7 11,-9l2 4c-4,1 -7,4 -9,7 0,0 -1,0 -1,1 -1,2 -3,5 -3,8zm52 72l-73 0c-1,0 -2,0 -2,-1 -1,-1 -1,-2 -1,-3 3,-15 12,-27 24,-30 2,0 3,1 4,2 0,2 -1,4 -2,4 -9,3 -16,11 -19,22l65 0c-3,-11 -10,-19 -18,-22 -1,0 -2,-2 -2,-4 1,-1 2,-2 4,-2 11,4 20,15 23,30 0,1 0,2 0,3 -1,1 -2,1 -3,1zm21 -76l-16 0c-2,0 -3,-2 -3,-3 0,-2 1,-4 3,-4l16 0c2,0 4,2 4,4 0,1 -2,3 -4,3zm0 36l-26 0c-2,0 -3,-1 -3,-3 0,-2 1,-3 3,-3l26 0c2,0 3,1 3,3 0,2 -1,3 -3,3zm0 39l-8 0c-2,0 -3,-1 -3,-3 0,-2 1,-3 3,-3l8 0c2,0 3,1 3,3 0,2 -1,3 -3,3z"/>
  </g>
 </g>
</svg>
